<svg width="358" height="380" viewBox="0 0 358 380" fill="none" xmlns="http://www.w3.org/2000/svg">
<g clip-path="url(#clip0_13_127)">
<mask id="mask0_13_127" style="mask-type:luminance" maskUnits="userSpaceOnUse" x="0" y="0" width="358" height="380">
<path d="M358 0H0V380H358V0Z" fill="white"/>
</mask>
<g mask="url(#mask0_13_127)">
<mask id="mask1_13_127" style="mask-type:alpha" maskUnits="userSpaceOnUse" x="43" y="48" width="272" height="332">
<path d="M211.546 245.115V270.071H216.97C270.894 270.071 314.606 313.819 314.606 367.786V380H43.394V367.786C43.394 313.819 87.1073 270.071 141.03 270.071H146.455V245.115C123.08 234.001 106.278 211.289 103.474 184.41C95.5757 183.293 89.5001 176.499 89.5001 168.286V149.286C89.5001 141.216 95.3645 134.517 103.061 133.225V124.857C103.061 82.8836 137.06 48.8571 179 48.8571C220.94 48.8571 254.94 82.8836 254.94 124.857V133.225C262.635 134.517 268.5 141.216 268.5 149.286V168.286C268.5 176.499 262.425 183.293 254.526 184.41C251.723 211.289 234.92 234.001 211.546 245.115Z" fill="white"/>
</mask>
<g mask="url(#mask1_13_127)">
<path d="M211.546 245.115V270.071H216.97C270.894 270.071 314.606 313.819 314.606 367.786V380H43.394V367.786C43.394 313.819 87.1073 270.071 141.03 270.071H146.455V245.115C123.08 234.001 106.278 211.289 103.474 184.41C95.5757 183.293 89.5001 176.499 89.5001 168.286V149.286C89.5001 141.216 95.3645 134.517 103.061 133.225V124.857C103.061 82.8836 137.06 48.8571 179 48.8571C220.94 48.8571 254.94 82.8836 254.94 124.857V133.225C262.635 134.517 268.5 141.216 268.5 149.286V168.286C268.5 176.499 262.425 183.293 254.526 184.41C251.723 211.289 234.92 234.001 211.546 245.115Z" fill="#D0C6AC"/>
<path d="M401.394 48.8571H43.394V428.857H401.394V48.8571Z" fill="#F3D0A6"/>
<path fill-rule="evenodd" clip-rule="evenodd" d="M254.939 156.071V187.286C254.939 229.259 220.94 263.286 179 263.286C137.06 263.286 103.061 229.259 103.061 187.286V156.071V176.429C103.061 218.402 137.06 252.429 179 252.429C220.94 252.429 254.939 218.402 254.939 176.429V156.071Z" fill="black" fill-opacity="0.1"/>
</g>
<mask id="mask2_13_127" style="mask-type:alpha" maskUnits="userSpaceOnUse" x="43" y="248" width="272" height="132">
<path fill-rule="evenodd" clip-rule="evenodd" d="M146.455 248.453C122.156 251.175 103.44 258.606 103.066 277.732C68.0017 292.557 43.394 327.295 43.394 367.784V380H314.606V367.784C314.606 327.295 289.999 292.557 254.934 277.732C254.56 258.606 235.845 251.175 211.546 248.453V274.143C211.546 292.132 196.975 306.714 179 306.714C161.026 306.714 146.455 292.132 146.455 274.143V248.453Z" fill="white"/>
</mask>
<g mask="url(#mask2_13_127)">
<path fill-rule="evenodd" clip-rule="evenodd" d="M146.455 248.454C122.156 251.175 103.44 258.606 103.066 277.733C68.0017 292.557 43.394 327.295 43.394 367.784V380H314.606V367.784C314.606 327.295 289.999 292.557 254.934 277.733C254.56 258.606 235.845 251.175 211.546 248.454V274.143C211.546 292.132 196.975 306.714 179 306.714C161.026 306.714 146.455 292.132 146.455 274.143V248.454Z" fill="#B7C1DB"/>
<path d="M358 230.714H0V380H358V230.714Z" fill="#083955"/>
<path d="M179 323C220.94 323 254.939 302.037 254.939 276.179C254.939 250.32 220.94 229.357 179 229.357C137.06 229.357 103.061 250.32 103.061 276.179C103.061 302.037 137.06 323 179 323Z" fill="#A20E0E"/>
<path fill-rule="evenodd" clip-rule="evenodd" d="M138.318 314.503V380H128.826V309.632C131.814 311.41 134.991 313.04 138.318 314.503ZM229.174 309.632V364.393C229.174 367.016 227.049 369.143 224.428 369.143C221.807 369.143 219.682 367.016 219.682 364.393V314.503C223.008 313.04 226.185 311.41 229.174 309.632Z" fill="#DFDFDF"/>
<path fill-rule="evenodd" clip-rule="evenodd" d="M123.347 247.983C102.937 251.846 88.8218 259.544 88.8218 274.561C88.8218 301.313 133.623 323 179 323C224.376 323 269.178 301.313 269.178 274.561C269.178 259.544 255.063 251.846 234.653 247.983C246.972 252.529 254.939 260.172 254.939 272.89C254.939 300.565 217.212 323 179 323C140.787 323 103.06 300.565 103.06 272.89C103.06 260.172 111.027 252.529 123.347 247.983Z" fill="black" fill-opacity="0.16"/>
</g>
<path fill-rule="evenodd" clip-rule="evenodd" d="M162.727 176.429C162.727 182.424 170.013 187.286 179 187.286C187.986 187.286 195.273 182.424 195.273 176.429" fill="black" fill-opacity="0.17"/>
<path d="M143.742 160.143C148.236 160.143 151.879 156.498 151.879 152C151.879 147.502 148.236 143.857 143.742 143.857C139.248 143.857 135.606 147.502 135.606 152C135.606 156.498 139.248 160.143 143.742 160.143Z" fill="#131415" fill-opacity="0.8"/>
<path d="M214.257 160.143C218.751 160.143 222.394 156.498 222.394 152C222.394 147.502 218.751 143.857 214.257 143.857C209.763 143.857 206.121 147.502 206.121 152C206.121 156.498 209.763 160.143 214.257 160.143Z" fill="#131415" fill-opacity="0.8"/>
<path d="M234.771 127.77C227.301 120.349 213.851 118.294 201.557 124.749C200.229 125.445 198.591 124.934 197.894 123.607C197.198 122.279 197.709 120.638 199.036 119.942C213.43 112.384 229.447 114.832 238.592 123.917C239.655 124.974 239.661 126.692 238.606 127.756C237.55 128.82 235.834 128.826 234.771 127.77Z" fill="#B58143"/>
<path d="M123.275 137.381C129.735 130.875 144.778 129.123 156.643 134.217C158.019 134.807 159.614 134.17 160.204 132.792C160.795 131.414 160.157 129.819 158.781 129.228C145.003 123.313 127.583 125.341 119.428 133.554C118.372 134.617 118.377 136.336 119.44 137.393C120.502 138.449 122.219 138.443 123.275 137.381Z" fill="#B58143"/>
<mask id="mask3_13_127" style="mask-type:alpha" maskUnits="userSpaceOnUse" x="0" y="0" width="358" height="380">
<path d="M358 0H0V380H358V0Z" fill="white"/>
</mask>
<g mask="url(#mask3_13_127)">
<mask id="mask4_13_127" style="mask-type:alpha" maskUnits="userSpaceOnUse" x="101" y="133" width="156" height="121">
<path fill-rule="evenodd" clip-rule="evenodd" d="M202.633 230.944C199.226 234.057 195.594 235.456 191.005 234.478C190.216 234.309 186.995 228.319 179 228.319C171.003 228.319 167.784 234.309 166.995 234.478C162.405 235.456 158.774 234.057 155.365 230.944C148.958 225.09 143.63 217.018 146.832 208.212C148.5 203.622 151.214 198.583 156.152 197.12C161.423 195.559 168.826 197.117 174.139 196.05C175.859 195.705 177.74 195.091 179 194.071C180.26 195.091 182.141 195.705 183.862 196.05C189.175 197.117 196.576 195.559 201.848 197.12C206.786 198.583 209.499 203.622 211.169 208.212C214.37 217.018 209.042 225.09 202.633 230.944ZM255.049 133C250.425 144.4 252.211 158.593 251.355 170.56C250.66 180.287 248.616 194.867 239.986 201.149C235.572 204.361 227.539 209.76 221.773 208.254C217.804 207.217 217.379 195.822 212.163 191.557C206.246 186.718 198.857 184.593 191.407 184.922C188.193 185.063 181.69 185.029 179 187.503C176.31 185.029 169.809 185.063 166.593 184.922C159.143 184.593 151.754 186.718 145.838 191.557C140.621 195.822 140.198 207.217 136.227 208.254C130.461 209.76 122.428 204.361 118.014 201.149C109.383 194.867 107.341 180.287 106.645 170.56C105.789 158.593 107.575 144.4 102.951 133C100.701 133 102.185 154.889 102.185 154.889V182.515C102.228 203.263 115.177 234.318 143.889 246.176C150.911 249.076 166.816 253.786 179 253.786C191.184 253.786 207.089 249.524 214.111 246.624C242.823 234.767 255.772 203.263 255.815 182.515V154.889C255.815 154.889 257.299 133 255.049 133Z" fill="white"/>
</mask>
<g mask="url(#mask4_13_127)">
<path fill-rule="evenodd" clip-rule="evenodd" d="M202.634 230.944C199.226 234.057 195.595 235.456 191.006 234.478C190.217 234.309 186.996 228.319 179.001 228.319C171.004 228.319 167.785 234.309 166.995 234.478C162.405 235.456 158.775 234.057 155.366 230.944C148.958 225.09 143.63 217.018 146.832 208.212C148.5 203.622 151.215 198.583 156.152 197.12C161.423 195.559 168.826 197.117 174.139 196.05C175.86 195.705 177.741 195.091 179.001 194.071C180.26 195.091 182.141 195.705 183.862 196.05C189.175 197.117 196.576 195.559 201.849 197.12C206.786 198.583 209.5 203.622 211.169 208.212C214.371 217.018 209.043 225.09 202.634 230.944ZM255.05 133C250.426 144.4 252.212 158.593 251.356 170.56C250.66 180.287 248.617 194.867 239.987 201.149C235.573 204.361 227.539 209.76 221.773 208.254C217.804 207.217 217.38 195.822 212.163 191.557C206.247 186.718 198.857 184.593 191.407 184.922C188.193 185.063 181.691 185.029 179.001 187.503C176.31 185.029 169.809 185.063 166.594 184.922C159.144 184.593 151.755 186.718 145.838 191.557C140.621 195.822 140.198 207.217 136.228 208.254C130.461 209.76 122.428 204.361 118.014 201.149C109.384 194.867 107.341 180.287 106.645 170.56C105.79 158.593 107.576 144.4 102.951 133C100.701 133 102.185 154.889 102.185 154.889V182.515C102.228 203.263 115.178 234.318 143.889 246.176C150.911 249.076 166.816 253.786 179.001 253.786C191.185 253.786 207.09 249.524 214.112 246.624C242.824 234.767 255.773 203.263 255.816 182.515V154.889C255.816 154.889 257.299 133 255.05 133Z" fill="#331B0C"/>
<path d="M379.697 97.7143H21.6973V428.857H379.697V97.7143Z" fill="#7E4821"/>
</g>
</g>
<path d="M196.26 209C198.663 211.036 188.33 221.172 179.804 221.214C169.746 221.026 160.015 211.036 163.35 209C166.686 206.964 193.856 206.964 196.26 209Z" fill="white"/>
<path d="M119.333 141.143L103.061 133" stroke="#828486" stroke-width="2" stroke-linecap="round"/>
<path d="M238.667 141.143L254.939 133" stroke="#828486" stroke-width="2" stroke-linecap="round"/>
<path d="M124.758 138.429H162.727C165.723 138.429 168.152 140.859 168.152 143.857V162.857C168.152 165.855 165.723 168.286 162.727 168.286H124.758C121.762 168.286 119.333 165.855 119.333 162.857V143.857C119.333 140.859 121.762 138.429 124.758 138.429Z" fill="#CEDBEF" fill-opacity="0.18" stroke="#838486" stroke-width="2"/>
<mask id="mask5_13_127" style="mask-type:alpha" maskUnits="userSpaceOnUse" x="116" y="134" width="55" height="10">
<path d="M170.864 134.357H116.621V143.857H170.864V134.357Z" fill="#D9D9D9"/>
</mask>
<g mask="url(#mask5_13_127)">
<path d="M124.757 139.107H162.727C165.348 139.107 167.473 141.234 167.473 143.857V162.857C167.473 165.48 165.348 167.607 162.727 167.607H124.757C122.136 167.607 120.011 165.48 120.011 162.857V143.857C120.011 141.234 122.136 139.107 124.757 139.107Z" fill="#CEDBEF" fill-opacity="0.18" stroke="#1A1F48" stroke-width="3"/>
</g>
<path d="M195.273 138.429H233.243C236.238 138.429 238.667 140.859 238.667 143.857V162.857C238.667 165.855 236.238 168.286 233.243 168.286H195.273C192.277 168.286 189.849 165.855 189.849 162.857V143.857C189.849 140.859 192.277 138.429 195.273 138.429Z" fill="#CEDBEF" fill-opacity="0.16" stroke="#828486" stroke-width="2"/>
<mask id="mask6_13_127" style="mask-type:alpha" maskUnits="userSpaceOnUse" x="187" y="134" width="55" height="10">
<path d="M241.379 134.357H187.136V143.857H241.379V134.357Z" fill="#D9D9D9"/>
</mask>
<g mask="url(#mask6_13_127)">
<path d="M195.273 139.107H233.242C235.864 139.107 237.988 141.234 237.988 143.857V162.857C237.988 165.48 235.864 167.607 233.242 167.607H195.273C192.651 167.607 190.526 165.48 190.526 162.857V143.857C190.526 141.234 192.651 139.107 195.273 139.107Z" fill="#CEDBEF" fill-opacity="0.16" stroke="#1A1F48" stroke-width="3"/>
</g>
<mask id="mask7_13_127" style="mask-type:alpha" maskUnits="userSpaceOnUse" x="165" y="134" width="28" height="10">
<path d="M192.561 134.357H165.439V143.857H192.561V134.357Z" fill="#D9D9D9"/>
</mask>
<g mask="url(#mask7_13_127)">
<path d="M172.898 139.107H185.102C187.723 139.107 189.848 141.234 189.848 143.857V162.857C189.848 165.48 187.723 167.607 185.102 167.607H172.898C170.276 167.607 168.151 165.48 168.151 162.857V143.857C168.151 141.234 170.276 139.107 172.898 139.107Z" fill="#CEDBEF" fill-opacity="0.18" stroke="#1A1F48" stroke-width="3"/>
</g>
<mask id="mask8_13_127" style="mask-type:alpha" maskUnits="userSpaceOnUse" x="132" y="272" width="94" height="37">
<path d="M225.106 272.786C225.106 277.419 223.914 282.007 221.597 286.289C219.279 290.57 215.884 294.459 211.603 297.737C207.32 301.013 202.238 303.612 196.644 305.386C191.05 307.158 185.055 308.071 179 308.071C172.945 308.071 166.95 307.158 161.356 305.386C155.763 303.612 150.68 301.013 146.398 297.737C142.117 294.459 138.721 290.57 136.404 286.289C134.087 282.007 132.894 277.419 132.894 272.786H146.356C146.356 276.066 147.2 279.315 148.841 282.347C150.481 285.377 152.886 288.131 155.917 290.452C158.948 292.771 162.547 294.611 166.508 295.867C170.468 297.122 174.714 297.769 179 297.769C183.287 297.769 187.532 297.122 191.492 295.867C195.453 294.611 199.052 292.771 202.083 290.452C205.114 288.131 207.519 285.377 209.159 282.347C210.8 279.315 211.645 276.066 211.645 272.786H225.106Z" fill="#666973"/>
</mask>
<g mask="url(#mask8_13_127)">
<path d="M179 308.071C204.464 308.071 225.106 296.831 225.106 282.964C225.106 269.098 204.464 257.857 179 257.857C153.536 257.857 132.894 269.098 132.894 282.964C132.894 296.831 153.536 308.071 179 308.071Z" fill="#666973"/>
</g>
</g>
</g>
<defs>
<clipPath id="clip0_13_127">
<rect width="358" height="380" fill="white"/>
</clipPath>
</defs>
</svg>
